<svg width="80" height="80" viewBox="0 0 80 80" fill="none" xmlns="http://www.w3.org/2000/svg">
<path d="M65.5208 62.9167C65.5208 64.349 64.349 65.5209 62.9167 65.5209C61.4844 65.5209 60.3125 64.349 60.3125 62.9167C60.3125 61.4844 61.4844 60.3125 62.9167 60.3125C64.349 60.3125 65.5208 61.4844 65.5208 62.9167ZM54.5833 60.3125C53.151 60.3125 51.9792 61.4844 51.9792 62.9167C51.9792 64.349 53.151 65.5209 54.5833 65.5209C56.0156 65.5209 57.1875 64.349 57.1875 62.9167C57.1875 61.4844 56.0156 60.3125 54.5833 60.3125ZM73.3333 54.0625V67.6042C73.3333 70.7683 70.7682 73.3334 67.6042 73.3334H12.3958C9.23176 73.3334 6.66666 70.7683 6.66666 67.6042V54.0625C6.66666 50.8985 9.23176 48.3334 12.3958 48.3334H28.5417V35.4037H21.6797C17.0443 35.4037 14.7266 29.7917 17.9948 26.5104L36.3151 8.19012C38.3463 6.15887 41.6406 6.15887 43.6849 8.19012L62.0052 26.5104C65.2865 29.7917 62.9557 35.4037 58.3203 35.4037H51.4583V48.3334H67.6042C70.7682 48.3334 73.3333 50.8985 73.3333 54.0625ZM32.7083 31.237V55.625C32.7083 56.1979 33.1771 56.6667 33.75 56.6667H46.25C46.8229 56.6667 47.2917 56.1979 47.2917 55.625V31.237H58.3203C59.2448 31.237 59.7135 30.1172 59.0625 29.4531L40.7422 11.1328C40.3385 10.7292 39.6745 10.7292 39.2708 11.1328L20.9505 29.4531C20.2995 30.1042 20.7552 31.237 21.6927 31.237H32.7083ZM69.1667 54.0625C69.1667 53.2031 68.4635 52.5 67.6042 52.5H51.4583V55.625C51.4583 58.5026 49.1276 60.8334 46.25 60.8334H33.75C30.8724 60.8334 28.5417 58.5026 28.5417 55.625V52.5H12.3958C11.5364 52.5 10.8333 53.2031 10.8333 54.0625V67.6042C10.8333 68.4636 11.5364 69.1667 12.3958 69.1667H67.6042C68.4635 69.1667 69.1667 68.4636 69.1667 67.6042V54.0625Z" fill="#D2D2D2"/>
</svg>
