<svg width="48" height="48" viewBox="0 0 48 48" fill="none" xmlns="http://www.w3.org/2000/svg">
<path d="M16.0444 33.5111C16.6667 33.5111 16.9333 33.6 17.0222 33.7333C17.1555 33.9111 17.2 34.0889 17.2 34.3556C17.2 34.5333 17.1555 34.7111 17.0667 34.8444C16.9778 34.9778 16.8889 35.0667 16.7111 35.1111C16.5333 35.1556 16.2667 35.2 16 35.2H15.3333V33.5111H16.0444Z" fill="#C5C5C5"/>
<path d="M24.5333 34.2222C24.4444 33.9556 24.2222 33.7333 24 33.6889C23.7333 33.6 23.4222 33.5556 23.0222 33.5556H22.3555V37.8667H23.6444C23.7333 37.8667 23.8667 37.8222 23.9555 37.7778C24.0444 37.7333 24.1333 37.6889 24.2222 37.6C24.6222 37.2444 24.8 36.5778 24.8 35.6889C24.8 35.0222 24.7111 34.5333 24.5333 34.2222Z" fill="#C5C5C5"/>
<path fill-rule="evenodd" clip-rule="evenodd" d="M26.8889 8.44444C26.8889 11.3778 29.2889 13.7778 32.2222 13.7778H36.6667V39.5555C36.6667 42 34.6667 44 32.2222 44H14.4444C12 44 10 42 10 39.5555V8.44444C10 6 12 4 14.4444 4H26.8889V8.44444ZM23.3333 7.55556H14.4444C13.9556 7.55556 13.5556 7.95555 13.5556 8.44444C13.5556 8.93334 13.9556 9.33333 14.4444 9.33333H23.3333C23.8222 9.33333 24.2222 8.93334 24.2222 8.44444C24.2222 7.95555 23.8222 7.55556 23.3333 7.55556ZM32.2222 16.4444H14.4444C13.9556 16.4444 13.5556 16.8444 13.5556 17.3333C13.5556 17.8222 13.9556 18.2222 14.4444 18.2222H32.2222C32.7111 18.2222 33.1111 17.8222 33.1111 17.3333C33.1111 16.8444 32.7111 16.4444 32.2222 16.4444ZM32.2222 20.8889H14.4444C13.9556 20.8889 13.5556 21.2889 13.5556 21.7778C13.5556 22.2667 13.9556 22.6667 14.4444 22.6667H32.2222C32.7111 22.6667 33.1111 22.2667 33.1111 21.7778C33.1111 21.2889 32.7111 20.8889 32.2222 20.8889ZM32.2222 25.3333H14.4444C13.9556 25.3333 13.5556 25.7333 13.5556 26.2222C13.5556 26.7111 13.9556 27.1111 14.4444 27.1111H32.2222C32.7111 27.1111 33.1111 26.7111 33.1111 26.2222C33.1111 25.7333 32.7111 25.3333 32.2222 25.3333ZM16.3111 36.7111C17.2 36.7111 17.8667 36.4889 18.3111 36.0889C18.8 35.6889 19.0222 35.0667 19.0667 34.2667C19.0667 33.9111 18.9778 33.6 18.8889 33.2889C18.8 32.9778 18.6222 32.7556 18.4 32.5333C18.1778 32.3111 17.9111 32.1778 17.6 32.0889C17.2889 32 16.8889 31.9555 16.3556 31.9555H14.6667C14.3111 31.9555 14.0444 32.0444 13.8667 32.2222C13.6889 32.4 13.6 32.7111 13.6 33.0667V38.4889C13.6 38.8444 13.6444 39.1111 13.8222 39.2889C14 39.5111 14.2222 39.6 14.4889 39.6C14.7111 39.6 14.9333 39.4667 15.1111 39.2889C15.2444 39.1111 15.3333 38.8444 15.3333 38.4889V36.7111H16.3111ZM26.5333 36.8891L26.5333 36.8889C26.5802 36.7013 26.6024 36.5014 26.6259 36.2891V36.2889L26.626 36.2884C26.647 36.0984 26.6692 35.8986 26.7111 35.6889C26.7111 34.3556 26.3111 33.3333 25.6 32.6667C25.2889 32.4 24.9778 32.2222 24.6222 32.1333C24.3111 32.0444 23.9111 32 23.4222 32H21.6889C21.3333 32 21.0667 32.0889 20.8889 32.2667C20.7111 32.4444 20.6222 32.7111 20.6222 33.0667V38.1778C20.6222 38.4444 20.6222 38.6222 20.6667 38.8C20.7556 38.9778 20.8444 39.1555 21.0222 39.2444C21.2 39.3333 21.4222 39.3778 21.6889 39.3778H23.4222C23.7333 39.3778 24 39.3778 24.2667 39.3333C24.4889 39.2889 24.7555 39.2 24.9778 39.1111C25.2 39.0222 25.4222 38.8444 25.6 38.6667C25.8222 38.4444 26.0444 38.1778 26.1778 37.8667C26.3555 37.6001 26.4444 37.2446 26.5333 36.8891ZM32.4 33.5111C32.6667 33.5111 32.8889 33.4222 33.0222 33.2889C33.2 33.1555 33.2445 32.9778 33.2445 32.7111C33.2445 32.4889 33.1556 32.3111 33.0222 32.1778C32.8889 32.0444 32.6667 31.9555 32.4 31.9555H29.2889C29.0667 31.9555 28.8444 32 28.7111 32.0889C28.5778 32.1778 28.4444 32.3111 28.3556 32.4889C28.3111 32.6222 28.2667 32.8444 28.2667 33.0667V38.4444C28.2667 38.8 28.3111 39.0667 28.4889 39.2444C28.6667 39.4667 28.8889 39.5555 29.1555 39.5555C29.3778 39.5555 29.6 39.4222 29.7778 39.2444C29.9111 39.0667 30 38.8 30 38.4444V36.3555H31.9556C32.2222 36.3555 32.4444 36.2667 32.5778 36.1333C32.7111 36 32.8 35.8222 32.8 35.6C32.8 35.3778 32.7111 35.2 32.5778 35.0667C32.4 34.9333 32.2222 34.8444 31.9556 34.8444H30V33.5111H32.4Z" fill="#C5C5C5"/>
<path d="M28.6667 8.44444V4.88889L35.7778 12H32.2222C30.2667 12 28.6667 10.4 28.6667 8.44444Z" fill="#C5C5C5"/>
</svg>
