<svg width="42" height="42" viewBox="0 0 42 42" fill="none" xmlns="http://www.w3.org/2000/svg">
<path d="M23.599 21.0004L31.4515 13.1479L33.0708 11.5285C33.3097 11.2897 33.3097 10.9015 33.0708 10.6626L31.3382 8.92993C31.0993 8.69105 30.7111 8.69105 30.4722 8.92993L21.0004 18.4018L11.5285 8.92916C11.2897 8.69028 10.9015 8.69028 10.6626 8.92916L8.92916 10.6618C8.69028 10.9007 8.69028 11.2889 8.92916 11.5278L18.4018 21.0004L8.92916 30.4722C8.69028 30.7111 8.69028 31.0993 8.92916 31.3382L10.6618 33.0708C10.9007 33.3097 11.2889 33.3097 11.5278 33.0708L21.0004 23.599L28.8529 31.4515L30.4722 33.0708C30.7111 33.3097 31.0993 33.3097 31.3382 33.0708L33.0708 31.3382C33.3097 31.0993 33.3097 30.7111 33.0708 30.4722L23.599 21.0004Z" fill="white"/>
</svg>
