<svg width="24" height="24" viewBox="0 0 24 24" fill="none" xmlns="http://www.w3.org/2000/svg">
<path fill-rule="evenodd" clip-rule="evenodd" d="M16.1111 6.88889C14.6444 6.88889 13.4444 5.68889 13.4444 4.22222V2H7.22222C6 2 5 3 5 4.22222V19.7778C5 21 6 22 7.22222 22H16.1111C17.3333 22 18.3333 21 18.3333 19.7778V6.88889H16.1111ZM7.22222 3.77778H11.6667C11.9111 3.77778 12.1111 3.97778 12.1111 4.22222C12.1111 4.46667 11.9111 4.66667 11.6667 4.66667H7.22222C6.97778 4.66667 6.77778 4.46667 6.77778 4.22222C6.77778 3.97778 6.97778 3.77778 7.22222 3.77778ZM7.22222 8.22222H16.1111C16.3556 8.22222 16.5556 8.42222 16.5556 8.66666C16.5556 8.91111 16.3556 9.11111 16.1111 9.11111H7.22222C6.97778 9.11111 6.77778 8.91111 6.77778 8.66666C6.77778 8.42222 6.97778 8.22222 7.22222 8.22222ZM7.22222 10.4444H16.1111C16.3556 10.4444 16.5556 10.6444 16.5556 10.8889C16.5556 11.1333 16.3556 11.3333 16.1111 11.3333H7.22222C6.97778 11.3333 6.77778 11.1333 6.77778 10.8889C6.77778 10.6444 6.97778 10.4444 7.22222 10.4444ZM7.22222 12.6667H16.1111C16.3556 12.6667 16.5556 12.8667 16.5556 13.1111C16.5556 13.3556 16.3556 13.5556 16.1111 13.5556H7.22222C6.97778 13.5556 6.77778 13.3556 6.77778 13.1111C6.77778 12.8667 6.97778 12.6667 7.22222 12.6667ZM14.3333 2.44444V4.22222C14.3333 5.2 15.1333 6 16.1111 6H17.8889L14.3333 2.44444ZM13.1392 17.3032C13.1392 17.6532 13.0773 17.96 12.9536 18.2236C12.8299 18.4873 12.6525 18.6908 12.4214 18.834C12.1919 18.9772 11.9282 19.0488 11.6304 19.0488C11.3358 19.0488 11.0729 18.978 10.8418 18.8364C10.6107 18.6948 10.4316 18.493 10.3047 18.231C10.1777 17.9673 10.1134 17.6646 10.1118 17.3228V17.147C10.1118 16.797 10.1745 16.4894 10.2998 16.2241C10.4268 15.9572 10.605 15.7529 10.8345 15.6113C11.0656 15.4681 11.3293 15.3965 11.6255 15.3965C11.9217 15.3965 12.1846 15.4681 12.4141 15.6113C12.6452 15.7529 12.8234 15.9572 12.9487 16.2241C13.0757 16.4894 13.1392 16.7962 13.1392 17.1445V17.3032ZM12.397 17.1421C12.397 16.7694 12.3302 16.4862 12.1968 16.2925C12.0633 16.0988 11.8729 16.002 11.6255 16.002C11.3797 16.002 11.1901 16.098 11.0566 16.29C10.9232 16.4805 10.8556 16.7604 10.854 17.1299V17.3032C10.854 17.6662 10.9207 17.9478 11.0542 18.1479C11.1877 18.3481 11.3797 18.4482 11.6304 18.4482C11.8761 18.4482 12.0649 18.3522 12.1968 18.1602C12.3286 17.9665 12.3953 17.6849 12.397 17.3154V17.1421ZM6.96729 19V15.4453H8.06104C8.37354 15.4453 8.65267 15.5161 8.89844 15.6577C9.14583 15.7977 9.3387 15.9979 9.47705 16.2583C9.6154 16.5171 9.68457 16.8117 9.68457 17.1421V17.3057C9.68457 17.6361 9.61621 17.9299 9.47949 18.187C9.3444 18.4442 9.15316 18.6436 8.90576 18.7852C8.65837 18.9268 8.37923 18.9984 8.06836 19H6.96729ZM7.69971 16.0386V18.4116H8.05371C8.34017 18.4116 8.55908 18.318 8.71045 18.1309C8.86182 17.9437 8.93913 17.6759 8.94238 17.3276V17.1396C8.94238 16.7783 8.86751 16.5049 8.71777 16.3193C8.56803 16.1322 8.34912 16.0386 8.06104 16.0386H7.69971ZM16.0371 18.7192C16.2926 18.4995 16.4342 18.1984 16.4619 17.8159H15.7295C15.7132 18.0324 15.6489 18.1927 15.5366 18.2969C15.4259 18.3994 15.2575 18.4507 15.0312 18.4507C14.7806 18.4507 14.5967 18.362 14.4795 18.1846C14.3639 18.0072 14.3062 17.7264 14.3062 17.3423V17.0737C14.3094 16.7059 14.3713 16.4349 14.4917 16.2607C14.6138 16.085 14.7969 15.9971 15.041 15.9971C15.2656 15.9971 15.4325 16.0492 15.5415 16.1533C15.6522 16.2559 15.7165 16.4219 15.7344 16.6514H16.4668C16.4277 16.2542 16.2829 15.9458 16.0322 15.7261C15.7816 15.5063 15.4512 15.3965 15.041 15.3965C14.7448 15.3965 14.4844 15.4665 14.2598 15.6064C14.0368 15.7448 13.8651 15.9442 13.7446 16.2046C13.6242 16.465 13.564 16.7661 13.564 17.1079V17.3252C13.564 17.8607 13.6942 18.2822 13.9546 18.5898C14.2166 18.8958 14.5755 19.0488 15.0312 19.0488C15.4479 19.0488 15.7832 18.939 16.0371 18.7192Z" fill="#959595"/>
</svg>
