<svg width="24" height="24" viewBox="0 0 24 24" fill="none" xmlns="http://www.w3.org/2000/svg">
<path fill-rule="evenodd" clip-rule="evenodd" d="M16.1111 6.88889C14.6444 6.88889 13.4444 5.68889 13.4444 4.22222V2H7.22222C6 2 5 3 5 4.22222V19.7778C5 21 6 22 7.22222 22H16.1111C17.3333 22 18.3333 21 18.3333 19.7778V6.88889H16.1111ZM7.22222 3.77778H11.6667C11.9111 3.77778 12.1111 3.97778 12.1111 4.22222C12.1111 4.46667 11.9111 4.66667 11.6667 4.66667H7.22222C6.97778 4.66667 6.77778 4.46667 6.77778 4.22222C6.77778 3.97778 6.97778 3.77778 7.22222 3.77778ZM7.22222 8.22222H16.1111C16.3556 8.22222 16.5556 8.42222 16.5556 8.66666C16.5556 8.91111 16.3556 9.11111 16.1111 9.11111H7.22222C6.97778 9.11111 6.77778 8.91111 6.77778 8.66666C6.77778 8.42222 6.97778 8.22222 7.22222 8.22222ZM7.22222 10.4444H16.1111C16.3556 10.4444 16.5556 10.6444 16.5556 10.8889C16.5556 11.1333 16.3556 11.3333 16.1111 11.3333H7.22222C6.97778 11.3333 6.77778 11.1333 6.77778 10.8889C6.77778 10.6444 6.97778 10.4444 7.22222 10.4444ZM7.22222 12.6667H16.1111C16.3556 12.6667 16.5556 12.8667 16.5556 13.1111C16.5556 13.3556 16.3556 13.5556 16.1111 13.5556H7.22222C6.97778 13.5556 6.77778 13.3556 6.77778 13.1111C6.77778 12.8667 6.97778 12.6667 7.22222 12.6667ZM14.3333 2.44444V4.22222C14.3333 5.2 15.1333 6 16.1111 6H17.8889L14.3333 2.44444ZM15.0491 17.75C15.1468 17.8232 15.1956 17.929 15.1956 18.0674C15.1956 18.1943 15.1468 18.2936 15.0491 18.3652C14.9515 18.4352 14.8156 18.4702 14.6414 18.4702C14.1727 18.4702 13.9383 18.2741 13.9383 17.8818H13.2034C13.2034 18.1113 13.262 18.3132 13.3792 18.4873C13.498 18.6615 13.6697 18.799 13.8943 18.8999C14.1189 18.9992 14.368 19.0488 14.6414 19.0488C15.0353 19.0488 15.3486 18.9618 15.5813 18.7876C15.8141 18.6118 15.9305 18.3701 15.9305 18.0625C15.9305 17.7858 15.8353 17.5547 15.6448 17.3691C15.4544 17.1836 15.1508 17.0282 14.7342 16.9028C14.5079 16.8345 14.3362 16.7612 14.219 16.6831C14.1035 16.605 14.0457 16.5081 14.0457 16.3926C14.0457 16.2689 14.0953 16.1696 14.1946 16.0947C14.2939 16.0182 14.4331 15.98 14.6121 15.98C14.7977 15.98 14.9417 16.0256 15.0442 16.1167C15.1468 16.2062 15.198 16.3324 15.198 16.4951H15.9305C15.9305 16.2819 15.8751 16.0915 15.7645 15.9238C15.6554 15.7562 15.5016 15.6268 15.303 15.5356C15.1045 15.4429 14.8782 15.3965 14.6243 15.3965C14.372 15.3965 14.1442 15.4388 13.9407 15.5234C13.7389 15.6081 13.5835 15.7261 13.4744 15.8774C13.367 16.0272 13.3133 16.1981 13.3133 16.3901C13.3133 16.7596 13.5151 17.0534 13.9187 17.2715C14.0669 17.3512 14.2679 17.4326 14.5218 17.5156C14.7757 17.597 14.9515 17.6751 15.0491 17.75ZM8.73564 16.6709L9.40215 15.4453H10.2444L9.20928 17.208L10.2713 19H9.41924L8.73564 17.7549L8.05205 19H7.2L8.26201 17.208L7.22686 15.4453H8.06914L8.73564 16.6709ZM11.3748 18.4116H12.93V19H10.6424V15.4453H11.3748V18.4116Z" fill="#959595"/>
</svg>
