<svg width="16" height="16" viewBox="0 0 16 16" fill="none" xmlns="http://www.w3.org/2000/svg">
<path d="M6.9585 1.33331H9.04183C9.38818 1.33331 9.66683 1.61196 9.66683 1.95831V6.33331H11.9507C12.4142 6.33331 12.646 6.89321 12.3179 7.22133L8.35693 11.1849C8.16162 11.3802 7.84131 11.3802 7.646 11.1849L3.67985 7.22133C3.35173 6.89321 3.5835 6.33331 4.04704 6.33331H6.3335V1.95831C6.3335 1.61196 6.61214 1.33331 6.9585 1.33331ZM14.6668 11.125V14.0416C14.6668 14.388 14.3882 14.6666 14.0418 14.6666H1.9585C1.61214 14.6666 1.3335 14.388 1.3335 14.0416V11.125C1.3335 10.7786 1.61214 10.5 1.9585 10.5H5.77881L7.05485 11.776C7.57829 12.2995 8.42204 12.2995 8.94548 11.776L10.2215 10.5H14.0418C14.3882 10.5 14.6668 10.7786 14.6668 11.125ZM11.4377 13.4166C11.4377 13.1302 11.2033 12.8958 10.9168 12.8958C10.6304 12.8958 10.396 13.1302 10.396 13.4166C10.396 13.7031 10.6304 13.9375 10.9168 13.9375C11.2033 13.9375 11.4377 13.7031 11.4377 13.4166ZM13.1043 13.4166C13.1043 13.1302 12.87 12.8958 12.5835 12.8958C12.297 12.8958 12.0627 13.1302 12.0627 13.4166C12.0627 13.7031 12.297 13.9375 12.5835 13.9375C12.87 13.9375 13.1043 13.7031 13.1043 13.4166Z" fill="white"/>
</svg>
